<svg xmlns="http://www.w3.org/2000/svg" viewBox="0 0 16.47 15.85"><defs><style>.cls-1{fill:#fff;}</style></defs><title>right</title><g id="Layer_2" data-name="Layer 2"><g id="Layer_2-2" data-name="Layer 2"><path class="cls-1" d="M10.71,13.69l5.69-5.6a.22.22,0,0,0,0-.31l-5.69-5.6a.13.13,0,0,0-.22.09V5.87c0,.16.07.25.22.4l1.59,1.56c.07.07.07.11,0,.18L10.71,9.58c-.16.16-.22.25-.22.4V13.6a.13.13,0,0,0,.22.09"/><path class="cls-1" d="M.22,15.81,8,8.08a.22.22,0,0,0,0-.31L.22,0A.13.13,0,0,0,0,.14V3.75c0,.16.07.25.22.4L3.93,7.84c.07.07.07.11,0,.18L.22,11.7c-.16.16-.22.25-.22.4v3.62a.13.13,0,0,0,.22.09"/></g></g></svg>